<svg width="18" height="18" viewBox="0 0 18 18" fill="none" xmlns="http://www.w3.org/2000/svg">
<g clip-path="url(#clip0_70_358)">
<path d="M17.795 16.8053L13.4021 12.4126C14.494 11.0995 15.1519 9.41337 15.1519 7.57617C15.1519 3.39865 11.7533 0 7.57599 0C3.39856 0 0 3.39865 0 7.57617C0 11.7534 3.39856 15.1518 7.57599 15.1518C9.41309 15.1518 11.0993 14.494 12.4124 13.4021L16.8053 17.795C16.9419 17.9317 17.1211 18 17.3002 18C17.4792 18 17.6584 17.9317 17.7951 17.795C18.0684 17.5217 18.0684 17.0786 17.795 16.8053ZM1.39966 7.57617C1.39966 4.17043 4.17033 1.39966 7.57599 1.39966C10.9815 1.39966 13.7521 4.17043 13.7521 7.57617C13.7521 10.9816 10.9815 13.7521 7.57599 13.7521C4.17033 13.7521 1.39966 10.9816 1.39966 7.57617Z" fill="white"/>
</g>
<defs>
<clipPath id="clip0_70_358">
<rect width="18" height="18" fill="white"/>
</clipPath>
</defs>
</svg>
