<svg width="24" height="24" viewBox="0 0 24 24" fill="none" xmlns="http://www.w3.org/2000/svg">
<path d="M20.5911 3.40887C18.3928 1.21051 15.4706 0 12.3615 0C12.3613 0 12.3605 0 12.3604 0C10.8226 0.000183105 9.3241 0.297913 7.90668 0.885132C6.48908 1.47235 5.21906 2.32141 4.13159 3.40887C1.93341 5.60706 0.722903 8.52979 0.722903 11.6385C0.722903 13.4925 1.17023 15.3349 2.01782 16.9764L0.0615262 22.5652C-0.0763522 22.9594 0.021243 23.3879 0.316775 23.6832C0.523501 23.8901 0.795596 24 1.07538 24C1.19532 24 1.31653 23.9799 1.43482 23.9385L7.02356 21.9824C8.6651 22.83 10.5075 23.2773 12.3615 23.2773C15.4702 23.2773 18.3928 22.0666 20.5911 19.8684C22.7893 17.6702 24 14.7475 24 11.6387C24 8.52979 22.7895 5.60706 20.5911 3.40887ZM18.2648 16.1984L17.0024 17.4608C16.6229 17.8403 16.0999 18.0306 15.4669 18.0306C14.894 18.0306 14.231 17.8748 13.502 17.5624C12.1699 16.9915 10.7058 15.9467 9.37958 14.6204C8.05335 13.2942 7.00855 11.8301 6.43762 10.498C5.78009 8.96393 5.81616 7.72064 6.53925 6.99756L7.80158 5.73523C8.33698 5.19983 9.20819 5.19983 9.74359 5.73523L11.3216 7.31323C11.8572 7.84863 11.8572 8.71985 11.3216 9.25543L10.736 9.841C11.5285 11.295 12.7051 12.4715 14.1592 13.264L14.7448 12.6784C15.2802 12.1428 16.1514 12.1428 16.6868 12.6784L18.2648 14.2564C18.5242 14.5157 18.6671 14.8607 18.6671 15.2274C18.6671 15.5942 18.5242 15.939 18.2648 16.1984Z" fill="white"/>
</svg>
