<svg width="60" height="60" viewBox="0 0 60 60" fill="none" xmlns="http://www.w3.org/2000/svg">
<path d="M52.9395 0V49.4238L33.5883 51.5602L14.2383 53.6953L11.4141 24.1547L14.2383 0L52.9395 0Z" fill="#E25600"/>
<path d="M52.9395 0V49.4238L33.5883 51.5602V0H52.9395Z" fill="#C92800"/>
<path d="M12.3486 0C9.43277 0 7.06055 2.37223 7.06055 5.28809V54.7119L14.2383 53.6955V0H12.3486Z" fill="#FF9000"/>
<path d="M52.9395 52.9395V56.4844L51.5016 58.2422H12.7301C10.7801 58.2422 9.19922 56.6613 9.19922 54.7125V54.7113C9.19922 52.7625 10.7801 51.1816 12.7301 51.1816H51.8836L52.9395 52.9395Z" fill="#CFD7E7"/>
<path d="M52.9395 52.9395V56.4844L51.5016 58.2422H33.5883V51.1816H51.8836L52.9395 52.9395Z" fill="#ADB7C9"/>
<path d="M10.5762 54.7125C10.5762 55.6887 11.3719 56.4844 12.3492 56.4844H52.9395V60H12.3492C9.43242 60 7.06055 57.6281 7.06055 54.7125C7.06055 51.7957 9.43242 49.4238 12.3492 49.4238H52.9395V52.9395H12.3492C11.3719 52.9395 10.5762 53.7352 10.5762 54.7125Z" fill="#F3F7FA"/>
<path d="M33.5883 49.4238H52.9395V52.9395H33.5883V49.4238Z" fill="#CFD7E7"/>
<path d="M33.5883 56.4844H52.9395V60H33.5883V56.4844Z" fill="#CFD7E7"/>
<path d="M24.7711 7.06055H42.4078V10.5762H24.7711V7.06055Z" fill="#4F4F67"/>
<path d="M21.2402 42.3633H45.9375V45.8789H21.2402V42.3633Z" fill="#4F4F67"/>
<path d="M33.5883 7.06055H42.4078V10.5762H33.5883V7.06055Z" fill="#30354D"/>
<path d="M33.5883 42.3633H45.9375V45.8789H33.5883V42.3633Z" fill="#30354D"/>
<path d="M42.3961 21.1816V24.6973H35.3461V38.8184H31.8305V24.6973H24.7816V21.1816H31.8305V14.1211H35.3461V21.1816H42.3961Z" fill="#FF9000"/>
<path d="M42.3961 21.1816V24.6973H35.3461V38.8184H33.5883V14.1211H35.3461V21.1816H42.3961Z" fill="#E25600"/>
</svg>
