<svg width="45" height="60" viewBox="0 0 45 60" fill="none" xmlns="http://www.w3.org/2000/svg">
<path fill-rule="evenodd" clip-rule="evenodd" d="M5.88913 55.1846C5.50248 55.1846 5.11584 54.9034 5.08069 54.4464C5.08069 54.3058 2.86628 39.6485 16.8909 32.935C17.0666 32.8295 18.7538 31.7399 18.5781 30.0527C18.5781 29.9825 18.5781 29.9473 18.5781 29.9122C18.7538 28.1547 17.0666 27.0651 16.8909 26.9596C2.86628 20.3164 5.01039 5.62392 5.01039 5.48333C5.11584 4.99123 5.50248 4.71004 5.99457 4.74519C6.38122 4.85064 6.66241 5.09668 6.73271 5.44818H37.5939C37.629 5.06153 37.9102 4.78034 38.2969 4.71004C38.7889 4.67489 39.1756 4.95609 39.281 5.44818C39.281 5.58877 41.4955 20.2812 27.4357 26.9596C27.2248 27.1002 25.5728 28.1547 25.7134 29.9122V30.0527C25.5728 31.7399 27.2248 32.8295 27.4357 32.935C41.4955 39.6134 39.281 54.3058 39.281 54.4464C39.2459 54.9034 38.8944 55.1846 38.4726 55.1846C38.4023 55.1846 38.3672 55.1846 38.2969 55.1846C37.9102 55.1143 37.629 54.7979 37.5939 54.4113H6.73271C6.73271 54.7979 6.41637 55.1494 5.99457 55.1846C5.99457 55.1846 5.95942 55.1846 5.88913 55.1846Z" fill="#EDEBED"/>
<path fill-rule="evenodd" clip-rule="evenodd" d="M40.4761 6.46748H3.88564C3.60444 6.46748 3.32325 6.32688 3.18265 6.08084L0.124654 1.30052C-0.0159438 1.05447 -0.0510932 0.702981 0.0895043 0.421786C0.230102 0.105441 0.546446 -0.0351562 0.827641 -0.0351562H43.4287C43.745 -0.0351562 44.0262 0.105441 44.1668 0.421786C44.3074 0.702981 44.3074 0.984176 44.1317 1.30052L41.1088 6.08084C41.0385 6.32688 40.7573 6.46748 40.4761 6.46748Z" fill="#A07864"/>
<path fill-rule="evenodd" clip-rule="evenodd" d="M43.499 60H0.862811C0.581616 60 0.300421 59.8594 0.124674 59.5782C-0.0159233 59.297 -0.0159233 58.9807 0.124674 58.6995L3.18267 53.8489C3.32327 53.6028 3.60446 53.4622 3.88566 53.4622H40.4762C40.7574 53.4622 41.0386 53.6028 41.1792 53.8489L44.202 58.6995C44.3778 58.9455 44.4129 59.297 44.202 59.5782C44.0614 59.8594 43.7802 60 43.499 60Z" fill="#A07864"/>
<path fill-rule="evenodd" clip-rule="evenodd" d="M22.1633 23.2689C15.6607 23.2689 10.3883 17.9965 10.3883 11.4939V8.71705C10.3883 8.22496 10.7749 7.83832 11.267 7.83832H33.0948C33.5869 7.83832 33.9735 8.22496 33.9735 8.71705V11.4939C33.9032 17.9965 28.6308 23.2689 22.1633 23.2689Z" fill="#FCBE37"/>
<path fill-rule="evenodd" clip-rule="evenodd" d="M33.0948 52.1617H11.267C10.7749 52.1617 10.3883 51.7751 10.3883 51.283V50.2988C10.3883 46.573 13.376 43.5501 17.0667 43.5501H27.1897C30.8804 43.5501 33.9032 46.573 33.9032 50.2988V51.283C33.9032 51.7751 33.5869 52.1617 33.0948 52.1617Z" fill="#FCBE37"/>
<path fill-rule="evenodd" clip-rule="evenodd" d="M22.1633 45.2724C21.6713 45.2724 21.2846 44.8858 21.2846 44.3937V22.4253C21.2846 21.9332 21.6713 21.5466 22.1633 21.5466C22.6554 21.5466 23.0421 21.9332 23.0421 22.4253V44.4288C23.0421 44.9209 22.6554 45.2724 22.1633 45.2724Z" fill="#FCBE37"/>
</svg>
