<svg width="60" height="60" viewBox="0 0 60 60" fill="none" xmlns="http://www.w3.org/2000/svg">
<g clip-path="url(#clip0_223_5)">
<path d="M30.0018 60.0036C46.5714 60.0036 60.0036 46.5714 60.0036 30.0018C60.0036 13.4323 46.5714 0 30.0018 0C13.4323 0 0 13.4323 0 30.0018C0 46.5714 13.4323 60.0036 30.0018 60.0036Z" fill="#FFC42E"/>
<path fill-rule="evenodd" clip-rule="evenodd" d="M54.9092 46.7213C49.5217 54.7319 40.3786 60 30.0018 60C19.6212 60 10.4781 54.7319 5.0907 46.7213H54.9092Z" fill="#F2B22E"/>
<path fill-rule="evenodd" clip-rule="evenodd" d="M22.0419 42.4628H37.9582C38.4792 42.4628 38.9098 42.8933 38.9098 43.418V44.3695H21.0903V43.418C21.0903 42.8933 21.5209 42.4628 22.0419 42.4628Z" fill="#512D2D"/>
<path fill-rule="evenodd" clip-rule="evenodd" d="M18.9954 46.7213H41.0046V45.5454C41.0046 44.8978 40.4764 44.3695 39.8287 44.3695H20.1713C19.5236 44.3695 18.9954 44.8978 18.9954 45.5454V46.7213Z" fill="#833D29"/>
<path fill-rule="evenodd" clip-rule="evenodd" d="M31.9809 40.7261V29.9078C31.9809 29.1697 31.5033 22.9066 30.9172 22.9066H29.0828C28.4966 22.9066 28.019 29.1697 28.019 29.9078V40.7261H31.9809Z" fill="#512D2D"/>
<path fill-rule="evenodd" clip-rule="evenodd" d="M30.9172 22.9066H29.0828V15.6196C28.6559 14.9647 28.3737 13.8612 28.3737 12.6129C28.3737 10.8581 28.9272 9.39635 29.6653 9.04901V7.98889C29.2565 7.8514 28.9634 7.46426 28.9634 7.00837C28.9634 6.4367 29.4265 5.97357 30.0018 5.97357C30.5735 5.97357 31.0366 6.4367 31.0366 7.00837C31.0366 7.46426 30.7436 7.8514 30.3347 7.98889V9.04901C31.0728 9.39635 31.6264 10.8581 31.6264 12.6129C31.6264 13.8612 31.3442 14.9647 30.9172 15.6196V22.9066Z" fill="#512D2D"/>
<path d="M32.9144 40.7261H27.0855C26.6059 40.7261 26.2172 41.1149 26.2172 41.5944C26.2172 42.074 26.6059 42.4628 27.0855 42.4628H32.9144C33.394 42.4628 33.7827 42.074 33.7827 41.5944C33.7827 41.1149 33.394 40.7261 32.9144 40.7261Z" fill="#833D29"/>
<path fill-rule="evenodd" clip-rule="evenodd" d="M29.9982 13.6043L22.1359 12.7721L13.6079 16.0972C13.4885 15.3772 12.8662 14.8272 12.1136 14.8272C11.2778 14.8272 10.6012 15.5074 10.6012 16.3432C10.6012 17.1754 11.2778 17.8556 12.1136 17.8556V17.8665C15.218 16.8425 18.3513 15.815 21.4629 14.7874L29.9005 15.5219L29.8969 15.54L29.9982 15.5328L30.1031 15.54L30.0995 15.5219L38.537 14.7874C41.6487 15.815 44.782 16.8425 47.8864 17.8665V17.8556C48.7222 17.8556 49.3988 17.1754 49.3988 16.3432C49.3988 15.5074 48.7222 14.8272 47.8864 14.8272C47.1338 14.8272 46.5115 15.3772 46.3921 16.0972L37.8641 12.7721L29.9982 13.6043Z" fill="#833D29"/>
<path d="M30.0018 16.3541C31.0209 16.3541 31.847 15.5279 31.847 14.5088C31.847 13.4897 31.0209 12.6636 30.0018 12.6636C28.9826 12.6636 28.1565 13.4897 28.1565 14.5088C28.1565 15.5279 28.9826 16.3541 30.0018 16.3541Z" fill="#833D29"/>
<path d="M30.0018 15.2144C30.3915 15.2144 30.7073 14.8985 30.7073 14.5088C30.7073 14.1192 30.3915 13.8033 30.0018 13.8033C29.6121 13.8033 29.2963 14.1192 29.2963 14.5088C29.2963 14.8985 29.6121 15.2144 30.0018 15.2144Z" fill="#512D2D"/>
<path fill-rule="evenodd" clip-rule="evenodd" d="M4.19702 31.9014H19.9975L17.5987 33.5802C16.951 34.0361 16.1804 34.2604 15.2867 34.2604H8.90787C8.01057 34.2604 7.24351 34.0361 6.59225 33.5802L4.19702 31.9014Z" fill="#833D29"/>
<path d="M17.5373 31.9809L12.0956 17.0379L6.65748 31.9809L6.21606 31.8217L11.8785 16.2745H12.3163L17.9751 31.8217L17.5373 31.9809Z" fill="#512D2D"/>
<path d="M12.3308 16.3541V31.9014H11.864V16.3541H12.3308Z" fill="#512D2D"/>
<path fill-rule="evenodd" clip-rule="evenodd" d="M55.803 31.9014H40.0024L42.3977 33.5802C43.0489 34.0361 43.8196 34.2604 44.7133 34.2604H51.0921C51.9894 34.2604 52.7565 34.0361 53.4077 33.5802L55.803 31.9014Z" fill="#833D29"/>
<path d="M42.0249 31.8217L47.6837 16.2745H48.1215L53.7839 31.8217L53.3425 31.9809L47.9044 17.0379L42.4627 31.9809L42.0249 31.8217Z" fill="#512D2D"/>
<path d="M48.1361 16.3541V31.9014H47.6693V16.3541H48.1361Z" fill="#512D2D"/>
</g>
<defs>
<clipPath id="clip0_223_5">
<rect width="60" height="60" fill="white"/>
</clipPath>
</defs>
</svg>
