<svg width="60" height="60" viewBox="0 0 60 60" fill="none" xmlns="http://www.w3.org/2000/svg">
<path d="M33.6794 46.6376C33.7244 46.6439 33.7706 46.6467 33.8176 46.6455C34.2887 46.6349 34.6619 46.2444 34.6512 45.7733C34.4703 37.8052 30.94 32.7871 30.7897 32.5773C30.5154 32.1941 29.9824 32.1061 29.5994 32.3805C29.2167 32.6546 29.1283 33.1868 29.4017 33.5698C29.437 33.6195 32.777 38.3988 32.9453 45.8119C32.9548 46.2361 33.2723 46.5809 33.6794 46.6376Z" fill="url(#paint0_linear_108_20)"/>
<path d="M1.06876 2.84758C10.5775 2.53675 39.6035 4.14605 32.8775 36.1817C32.5573 37.7062 30.8897 39.1588 29.2348 39.3564C24.3796 39.9362 14.6595 39.6222 7.21511 29.9663C-2.34807 17.5625 7.19993 9.31017 0.183816 4.21122C-0.324184 3.84205 0.302404 2.87264 1.06876 2.84758Z" fill="url(#paint1_linear_108_20)"/>
<path d="M8.06628 31.0133C7.77992 30.6758 7.49545 30.3298 7.21522 29.9663C-2.34796 17.5625 7.20004 9.31016 0.183921 4.21122C-0.324079 3.84204 0.302627 2.87263 1.06886 2.84757C8.38498 2.60851 27.2529 3.50922 32.5023 18.5286L30.096 33.074L8.06628 31.0133Z" fill="url(#paint2_linear_108_20)"/>
<path d="M25.4597 24.871L3.42439 22.8098C0.888627 14.2915 5.75227 8.25806 0.183921 4.21124C-0.324079 3.84206 0.302627 2.87265 1.06886 2.84759C6.88216 2.65759 19.9897 3.18688 27.7632 10.9465L25.4597 24.871Z" fill="url(#paint3_linear_108_20)"/>
<path d="M2.6862 15.255L18.6464 16.75L20.4164 6.05045C17.9047 4.95045 15.2677 4.20892 12.7218 3.71986C8.10549 2.82621 3.78808 2.75892 1.06984 2.8475C0.303843 2.8715 -0.323098 3.84221 0.182196 4.21103C2.30667 5.75586 2.91514 7.58621 2.9902 9.73645C3.05255 11.3848 2.79996 13.2212 2.6862 15.255Z" fill="url(#paint4_linear_108_20)"/>
<path d="M2.9902 9.73656L11.595 10.5399L12.7218 3.71986C8.10549 2.82621 3.78808 2.75892 1.06984 2.8475C0.303843 2.8715 -0.323098 3.84221 0.182196 4.21103C2.30655 5.75598 2.91514 7.58621 2.9902 9.73656Z" fill="url(#paint5_linear_108_20)"/>
<path d="M7.2151 29.9664C-2.34796 17.5625 7.20004 9.31019 0.183923 4.21125C-0.0700771 4.02666 -0.04043 3.69195 0.148629 3.40031L0.262746 3.2536C0.262746 3.2536 23.9424 14.4062 32.03 37.7924C31.3176 38.6133 30.2739 39.2323 29.2349 39.3563C24.3796 39.9362 14.6595 39.6222 7.2151 29.9664Z" fill="url(#paint6_linear_108_20)"/>
<path d="M1.06876 2.84758C10.5775 2.53675 39.6035 4.14605 32.8775 36.1817C32.5573 37.7062 30.8897 39.1588 29.2348 39.3564C24.3796 39.9362 14.6595 39.6222 7.21511 29.9663C-2.34807 17.5625 7.19993 9.31017 0.183816 4.21122C-0.324184 3.84205 0.302404 2.87264 1.06876 2.84758Z" fill="url(#paint7_linear_108_20)"/>
<path d="M13.7842 57.1815C13.7307 57.1815 13.6764 57.1772 13.6218 57.1684C13.0745 57.0794 12.7029 56.5635 12.7918 56.0163C14.2969 46.7575 19.2271 41.4817 19.4363 41.2617C19.8184 40.8597 20.4538 40.8435 20.8558 41.2255C21.2575 41.6072 21.274 42.2419 20.893 42.6439C20.8437 42.6963 16.1743 47.7246 14.7741 56.3384C14.6938 56.8312 14.2677 57.1815 13.7842 57.1815Z" fill="url(#paint8_linear_108_20)"/>
<path d="M58.9093 11.4349C47.876 9.52812 13.7806 6.68929 16.4172 45.124C16.5427 46.9529 18.2507 48.9171 20.1476 49.4162C25.7129 50.8807 37.0941 52.0934 47.34 42.0474C60.5019 29.1422 50.7128 17.972 59.7194 13.1681C60.3714 12.8202 59.7985 11.5886 58.9093 11.4349Z" fill="url(#paint9_linear_108_20)"/>
<path d="M46.1778 43.1297C46.5664 42.7827 46.9542 42.4257 47.3399 42.0474C60.5018 29.1423 50.7127 17.972 59.7193 13.1681C60.3715 12.8204 59.7984 11.5886 58.9092 11.435C50.42 9.96791 28.2804 7.9532 19.7218 24.6078L20.164 41.9534L46.1778 43.1297Z" fill="url(#paint10_linear_108_20)"/>
<path d="M26.9008 33.1446L52.9211 34.3212C57.2605 24.8038 52.5713 16.9808 59.7193 13.1681C60.3714 12.8203 59.7984 11.5886 58.9092 11.4349C52.1638 10.2692 36.7992 8.75704 26.4774 16.5394L26.9008 33.1446Z" fill="url(#paint11_linear_108_20)"/>
<path d="M55.0087 25.6348L36.1618 24.7851L35.8367 12.0257C38.9433 11.1514 42.1374 10.7154 45.1843 10.5588C50.7106 10.2671 55.7541 10.8899 58.9082 11.4346C59.7971 11.5871 60.3703 12.8204 59.7214 13.1681C56.9941 14.6238 55.9875 16.6585 55.5507 19.1527C55.2102 21.064 55.2063 23.2456 55.0087 25.6348Z" fill="url(#paint12_linear_108_20)"/>
<path d="M55.5507 19.1528L45.39 18.6916L45.1843 10.5588C50.7106 10.2671 55.7541 10.8899 58.9082 11.4346C59.7972 11.5871 60.3703 12.8204 59.7214 13.1681C56.9941 14.6239 55.9875 16.6586 55.5507 19.1528Z" fill="url(#paint13_linear_108_20)"/>
<path d="M47.3399 42.0474C60.5018 29.1422 50.7127 17.972 59.7193 13.1681C60.0454 12.9942 60.0651 12.5993 59.8923 12.2286L59.783 12.0391C59.783 12.0391 30.3693 21.1927 17.1433 47.1392C17.8405 48.2117 18.9565 49.1028 20.1475 49.4162C25.7128 50.8807 37.094 52.0934 47.3399 42.0474Z" fill="url(#paint14_linear_108_20)"/>
<defs>
<linearGradient id="paint0_linear_108_20" x1="30.63" y1="32.0777" x2="33.7669" y2="46.657" gradientUnits="userSpaceOnUse">
<stop stop-color="#8BC727"/>
<stop offset="1" stop-color="#02905D"/>
</linearGradient>
<linearGradient id="paint1_linear_108_20" x1="19.2647" y1="11.3745" x2="21.3804" y2="46.8851" gradientUnits="userSpaceOnUse">
<stop stop-color="#8BC727"/>
<stop offset="1" stop-color="#02905D"/>
</linearGradient>
<linearGradient id="paint2_linear_108_20" x1="18.8039" y1="23.9943" x2="29.3851" y2="66.6842" gradientUnits="userSpaceOnUse">
<stop stop-color="#026841" stop-opacity="0"/>
<stop offset="1" stop-color="#3E5959"/>
</linearGradient>
<linearGradient id="paint3_linear_108_20" x1="14.4005" y1="12.9375" x2="29.7649" y2="62.4937" gradientUnits="userSpaceOnUse">
<stop stop-color="#026841" stop-opacity="0"/>
<stop offset="1" stop-color="#3E5959"/>
</linearGradient>
<linearGradient id="paint4_linear_108_20" x1="10.5447" y1="8.00928" x2="25.4518" y2="46.0212" gradientUnits="userSpaceOnUse">
<stop stop-color="#026841" stop-opacity="0"/>
<stop offset="1" stop-color="#3E5959"/>
</linearGradient>
<linearGradient id="paint5_linear_108_20" x1="6.95666" y1="6.43352" x2="14.3416" y2="40.7563" gradientUnits="userSpaceOnUse">
<stop stop-color="#026841" stop-opacity="0"/>
<stop offset="1" stop-color="#3E5959"/>
</linearGradient>
<linearGradient id="paint6_linear_108_20" x1="14.685" y1="25.1904" x2="22.2709" y2="0.417983" gradientUnits="userSpaceOnUse">
<stop stop-color="#026841" stop-opacity="0"/>
<stop offset="1" stop-color="#3E5959"/>
</linearGradient>
<linearGradient id="paint7_linear_108_20" x1="13.2048" y1="16.3989" x2="23.2897" y2="26.3679" gradientUnits="userSpaceOnUse">
<stop stop-color="#026841" stop-opacity="0"/>
<stop offset="1" stop-color="#3E5959"/>
</linearGradient>
<linearGradient id="paint8_linear_108_20" x1="19.724" y1="40.7232" x2="13.6961" y2="57.2147" gradientUnits="userSpaceOnUse">
<stop stop-color="#8BC727"/>
<stop offset="1" stop-color="#02905D"/>
</linearGradient>
<linearGradient id="paint9_linear_108_20" x1="36.267" y1="18.4093" x2="28.0359" y2="59.449" gradientUnits="userSpaceOnUse">
<stop stop-color="#8BC727"/>
<stop offset="1" stop-color="#02905D"/>
</linearGradient>
<linearGradient id="paint10_linear_108_20" x1="34.8289" y1="33.2192" x2="15.5504" y2="81.2816" gradientUnits="userSpaceOnUse">
<stop stop-color="#026841" stop-opacity="0"/>
<stop offset="1" stop-color="#3E5959"/>
</linearGradient>
<linearGradient id="paint11_linear_108_20" x1="41.7609" y1="21.0413" x2="15.7886" y2="76.3331" gradientUnits="userSpaceOnUse">
<stop stop-color="#026841" stop-opacity="0"/>
<stop offset="1" stop-color="#3E5959"/>
</linearGradient>
<linearGradient id="paint12_linear_108_20" x1="47.0586" y1="15.921" x2="23.496" y2="57.8249" gradientUnits="userSpaceOnUse">
<stop stop-color="#026841" stop-opacity="0"/>
<stop offset="1" stop-color="#3E5959"/>
</linearGradient>
<linearGradient id="paint13_linear_108_20" x1="51.4988" y1="14.6667" x2="37.3077" y2="53.4914" gradientUnits="userSpaceOnUse">
<stop stop-color="#026841" stop-opacity="0"/>
<stop offset="1" stop-color="#3E5959"/>
</linearGradient>
<linearGradient id="paint14_linear_108_20" x1="39.4375" y1="35.2835" x2="34.6181" y2="5.16236" gradientUnits="userSpaceOnUse">
<stop stop-color="#026841" stop-opacity="0"/>
<stop offset="1" stop-color="#3E5959"/>
</linearGradient>
</defs>
</svg>
