<svg width="138" height="129" viewBox="0 0 138 129" fill="none" xmlns="http://www.w3.org/2000/svg">
<path d="M38.6601 74.8733C35.5092 74.5179 33.2432 71.6754 33.5986 68.5247L33.8716 66.1048C34.5069 60.4736 38.6212 55.8365 44.1096 54.5658C48.238 53.6099 51.239 49.9725 51.4072 45.7204C51.5916 41.0642 48.2709 36.9315 43.6835 36.1076C38.8315 35.2333 34.0778 38.2724 32.8607 43.0199C32.7519 43.4443 32.6716 43.8827 32.6219 44.3231C32.2665 47.474 29.424 49.74 26.2733 49.3846C23.1226 49.0293 20.8564 46.1867 21.2118 43.036C21.3208 42.0702 21.4979 41.1054 21.738 40.1685C24.4412 29.6247 34.9727 22.8751 45.7136 24.806C55.9103 26.6376 63.2908 35.8241 62.8811 46.1748C62.5086 55.5822 55.8546 63.6331 46.6998 65.753C45.9426 65.9282 45.373 66.5871 45.2819 67.3924L45.0089 69.8124C44.6533 72.9627 41.811 75.2288 38.6601 74.8733Z" fill="#FFD15B"/>
<path d="M36.7452 91.8487C33.5943 91.4932 31.3283 88.6507 31.6837 85.5L31.689 85.4528C32.0445 82.3019 34.8869 80.0359 38.0376 80.3913C41.1885 80.7468 43.4545 83.5892 43.0992 86.7399L43.0938 86.7871C42.7384 89.938 39.8959 92.204 36.7452 91.8487Z" fill="#FFD15B"/>
<path d="M26.781 40.7377C26.5397 41.6744 26.3646 42.6387 26.2555 43.6047C26.0022 45.8503 27.0795 47.94 28.8613 49.0817C28.058 49.3721 27.1793 49.4865 26.2731 49.3843C23.1243 49.029 20.8561 46.1873 21.2117 43.0357C21.3208 42.0697 21.4988 41.1056 21.74 40.1691C24.4418 29.6228 34.9747 22.875 45.7146 24.8051C46.0993 24.8746 46.4799 24.9549 46.8562 25.0465C37.5673 25.1415 29.156 31.4764 26.781 40.7377Z" fill="#FFC344"/>
<path d="M49.1531 55.1342C43.6651 56.4053 39.5488 61.0433 38.9138 66.6741L38.6409 69.0934C38.3876 71.339 39.4678 73.4289 41.2494 74.5708C40.4461 74.8611 39.5675 74.9755 38.6612 74.8733C35.5095 74.5179 33.2443 71.6764 33.5999 68.5248L33.8728 66.1055C34.5081 60.4746 38.6213 55.8364 44.1121 54.5656C48.2401 53.6085 51.2389 49.973 51.4069 45.7207C51.5664 41.7215 49.1401 38.1088 45.5444 36.6498C46.5765 36.4806 47.6497 36.4833 48.7272 36.6769C53.3154 37.5004 56.6354 41.6323 56.4506 46.2894C56.2828 50.5418 53.2811 54.1771 49.1531 55.1342Z" fill="#FFC344"/>
<path d="M39.3343 91.5459C38.531 91.8363 37.6524 91.9506 36.7461 91.8484C33.5945 91.493 31.3292 88.6515 31.6848 85.4999L31.6903 85.4516C32.0455 82.3028 34.8872 80.0346 38.0388 80.3902C38.945 80.4924 39.7762 80.7998 40.4944 81.2617C38.5028 81.9807 36.9841 83.7775 36.7312 86.0204L36.7257 86.0687C36.4726 88.314 37.5527 90.404 39.3343 91.5459Z" fill="#FFC344"/>
<path d="M78.5998 97.2866C76.3576 95.0445 76.3578 91.4094 78.5999 89.1672L80.3219 87.4451C84.3291 83.4381 90.4367 82.377 95.5204 84.8049C99.3444 86.6311 103.958 85.6577 106.741 82.4379C109.788 78.912 109.767 73.6108 106.694 70.1066C103.445 66.3981 97.8338 65.8111 93.9225 68.7644C93.573 69.0284 93.2368 69.3213 92.9234 69.6346C90.6814 71.8768 87.0462 71.8766 84.8041 69.6345C82.5619 67.3924 82.5621 63.7573 84.8042 61.5151C85.4916 60.8278 86.2314 60.1838 87.0033 59.601C95.69 53.0418 108.132 54.3295 115.327 62.535C122.158 70.3238 122.202 82.1077 115.429 89.9455C109.273 97.0691 99.0518 99.2161 90.5721 95.1666C89.8707 94.8316 89.0145 94.9916 88.4413 95.5647L86.7194 97.2868C84.4771 99.5288 80.8417 99.5287 78.5998 97.2866Z" fill="#6FD7A3"/>
<path d="M66.5201 109.366C64.278 107.124 64.2781 103.489 66.5202 101.247L66.5538 101.213C68.7959 98.971 72.431 98.9712 74.6732 101.213C76.9154 103.455 76.9152 107.09 74.6731 109.333L74.6395 109.366C72.3974 111.608 68.7623 111.608 66.5201 109.366Z" fill="#6FD7A3"/>
<path d="M90.5912 63.1902C89.8186 63.7721 89.0805 64.4171 88.393 65.1045C86.7951 66.7022 86.3349 69.0079 87.0161 71.0113C86.2071 70.7376 85.4487 70.2793 84.8037 69.6344C82.563 67.3936 82.561 63.758 84.8037 61.5152C85.4911 60.8278 86.2312 60.185 87.0039 59.6031C95.6909 53.0412 108.133 54.3312 115.328 62.5354C115.585 62.8295 115.833 63.1295 116.07 63.4357C108.748 57.7194 98.2218 57.4293 90.5912 63.1902Z" fill="#3EC3A4"/>
<path d="M99.1095 88.3935C94.026 85.9662 87.9162 87.0267 83.9093 91.0335L82.1877 92.755C80.5898 94.3528 80.1315 96.6606 80.8127 98.664C80.0035 98.3902 79.2453 97.9321 78.6004 97.2871C76.3576 95.0444 76.3578 91.4105 78.6004 89.1679L80.322 87.4464C84.3288 83.4396 90.4365 82.3771 95.5222 84.8064C99.3465 86.6315 103.958 85.6581 106.74 82.438C109.358 79.4104 109.713 75.0732 107.811 71.691C108.723 72.2019 109.561 72.8731 110.282 73.6965C113.357 77.2004 113.377 82.5012 110.329 86.0275C107.547 89.2472 102.934 90.2184 99.1095 88.3935Z" fill="#3EC3A4"/>
<path d="M68.7335 110.743C67.9243 110.47 67.1661 110.011 66.5212 109.366C64.2784 107.124 64.2785 103.49 66.5212 101.247L66.5557 101.213C68.7964 98.9722 72.4321 98.9702 74.6749 101.213C75.3196 101.858 75.778 102.616 76.0516 103.425C74.0462 102.746 71.7386 103.204 70.1428 104.8L70.1083 104.834C68.5105 106.432 68.052 108.74 68.7335 110.743Z" fill="#3EC3A4"/>
<path d="M63.0052 79.4737C59.9221 77.6937 58.8657 73.7513 60.6457 70.6683L62.0129 68.3004C65.1941 62.7902 71.5095 59.8648 77.7281 61.0204C82.4056 61.8896 87.1268 59.4933 89.2085 55.1926C91.488 50.4836 89.9257 44.7401 85.5743 41.833C80.9733 38.7554 74.7172 39.7493 71.3338 44.0889C71.0315 44.4768 70.7519 44.892 70.5031 45.323C68.7231 48.406 64.7807 49.4624 61.6977 47.6824C58.6146 45.9024 57.5583 41.96 59.3383 38.877C59.8839 37.9319 60.4992 37.0184 61.1669 36.1621C68.6813 26.5245 82.5488 24.3052 92.7359 31.1132C102.408 37.5748 105.88 50.3416 100.812 60.8098C96.2065 70.3241 85.7451 75.6228 75.3722 73.6952C74.5143 73.5357 73.6323 73.9582 73.1773 74.7462L71.8102 77.1141C70.0306 80.1973 66.0882 81.2537 63.0052 79.4737Z" fill="#0573CE"/>
<path d="M53.4151 96.0841C50.332 94.304 49.2757 90.3617 51.0557 87.2786L51.0824 87.2323C52.8624 84.1493 56.8048 83.0929 59.8878 84.8729C62.9709 86.6529 64.0273 90.5953 62.2473 93.6783L62.2205 93.7246C60.4405 96.8077 56.4982 97.8641 53.4151 96.0841Z" fill="#0573CE"/>
<path d="M66.1011 39.0122C65.4324 39.8678 64.8193 40.7818 64.2736 41.727C63.005 43.9242 63.1757 46.5583 64.4969 48.5331C63.5399 48.4713 62.5843 48.1947 61.6977 47.6828C58.6165 45.9039 57.5579 41.9615 59.3384 38.8776C59.8841 37.9324 60.4999 37.0202 61.1687 36.1645C68.6829 26.5239 82.5513 24.307 92.7377 31.1139C93.1025 31.3578 93.458 31.6114 93.8043 31.8746C84.2021 27.8031 72.7023 30.5472 66.1011 39.0122Z" fill="#0067C5"/>
<path d="M82.6633 63.8694C76.4449 62.7144 70.1272 65.6399 66.9461 71.1497L65.5794 73.5171C64.3108 75.7143 64.4843 78.35 65.8055 80.3248C64.8485 80.263 63.8929 79.9863 63.0063 79.4745C59.9225 77.694 58.8665 73.7531 60.6469 70.6693L62.0137 68.302C65.1948 62.7922 71.5097 59.865 77.7309 61.0217C82.4087 61.8895 87.1267 59.4941 89.208 55.1935C91.1673 51.1496 90.2917 46.3426 87.2462 43.2271C88.3842 43.5162 89.4876 44.0006 90.5097 44.6838C94.8618 47.5906 96.424 53.3331 94.1434 58.0429C92.0619 62.3434 87.3411 64.7372 82.6633 63.8694Z" fill="#0067C5"/>
<path d="M56.2155 96.9347C55.2586 96.873 54.3029 96.5963 53.4163 96.0844C50.3325 94.304 49.2765 90.3631 51.057 87.2793L51.0844 87.2319C52.8632 84.1509 56.8057 83.0921 59.8895 84.8726C60.7763 85.3845 61.4935 86.0737 62.0255 86.8716C59.6533 86.7177 57.2837 87.8852 56.0168 90.0796L55.9894 90.127C54.721 92.3244 54.8945 94.9601 56.2155 96.9347Z" fill="#0067C5"/>
<path d="M44.7062 86.9213C44.9265 84.968 44.3731 83.0462 43.1478 81.5092C41.9226 79.9722 40.1719 79.0045 38.2191 78.7843C36.2661 78.564 34.344 79.1174 32.8071 80.3426C31.2704 81.5679 30.3026 83.3183 30.0823 85.2695L30.0766 85.3186C29.8564 87.2718 30.4097 89.1936 31.6353 90.7308C32.219 91.4632 32.9221 92.066 33.7093 92.5205C34.5745 93.02 35.5416 93.3401 36.564 93.4556C38.5169 93.6759 40.439 93.1225 41.9758 91.8972C43.5127 90.6721 44.4803 88.9215 44.7006 86.9703L44.7062 86.9213ZM39.9598 89.3682C39.0984 90.055 38.0211 90.3651 36.9267 90.2417C35.8319 90.118 34.8506 89.5753 34.1641 88.7142C33.4773 87.8529 33.1672 86.7755 33.2905 85.6827L33.2961 85.6337C33.4195 84.539 33.9618 83.5579 34.8235 82.8714C35.6848 82.1846 36.7622 81.8744 37.8566 81.9979C38.4297 82.0626 38.9717 82.2421 39.4566 82.522C39.8978 82.7768 40.2918 83.1148 40.6189 83.5252C41.3057 84.3866 41.6159 85.4639 41.4926 86.5567L41.487 86.6057C41.3635 87.7006 40.821 88.6816 39.9598 89.3682Z" fill="black"/>
<path d="M121.968 73.8941C121.874 73.006 121.077 72.3627 120.189 72.4572C119.301 72.5517 118.658 73.3485 118.752 74.2364C119.318 79.55 117.661 84.8904 114.206 88.8883C108.523 95.4629 99.0911 97.4442 91.2681 93.7064C89.953 93.0781 88.3585 93.3642 87.2973 94.4209L85.5764 96.1428C84.7968 96.9221 83.7608 97.3513 82.659 97.3515C81.5577 97.3516 80.5222 96.9222 79.7432 96.1429C78.964 95.3644 78.5349 94.3289 78.535 93.2272C78.535 92.1255 78.9642 91.0901 79.7438 90.3108L81.466 88.5871C84.9885 85.0651 90.3562 84.1316 94.8225 86.264C99.3015 88.4038 104.705 87.2659 107.963 83.4963C111.535 79.3619 111.511 73.1466 107.909 69.0399C105.88 66.7238 102.982 65.4157 100.009 65.2888C100.86 64.113 101.62 62.8543 102.268 61.5151C102.901 60.2082 103.407 58.8677 103.795 57.5087C107.792 58.3994 111.415 60.527 114.112 63.602C115.168 64.8059 116.07 66.1419 116.793 67.5726C116.94 67.864 117.163 68.0917 117.426 68.2437C117.883 68.5073 118.459 68.5426 118.965 68.2873C119.762 67.8848 120.082 66.9122 119.679 66.1148C118.835 64.4411 117.779 62.8781 116.544 61.4694C113.389 57.8719 109.15 55.3851 104.477 54.3482C105.868 44.9747 101.838 35.2502 93.6345 29.7694C83.311 22.87 69.4468 24.6471 61.1901 33.6371C57.8457 28.1808 52.3225 24.3497 46.0008 23.2127C34.4294 21.1334 23.0841 28.4051 20.1736 39.7638C19.915 40.7627 19.7238 41.8025 19.6049 42.855C19.3846 44.8083 19.9379 46.7301 21.1632 48.2668C22.3883 49.8035 24.1385 50.7708 26.0919 50.9912C28.045 51.2113 29.9671 50.6576 31.504 49.4319C33.041 48.2063 34.0084 46.4561 34.2281 44.5046C34.2688 44.1439 34.3358 43.779 34.4261 43.4233C35.4354 39.4885 39.3755 36.9741 43.3976 37.6991C47.1956 38.3809 49.9445 41.8019 49.7921 45.6566C49.6517 49.1819 47.1646 52.1973 43.7436 52.9897C37.5874 54.4161 32.9745 59.6144 32.266 65.924L31.9925 68.3435C31.6545 71.3404 33.176 74.1269 35.6362 75.5471C36.4846 76.0368 37.4448 76.3642 38.4785 76.4815C40.4314 76.7015 42.3536 76.1479 43.8906 74.9223C45.4275 73.6966 46.3949 71.9464 46.6145 69.9956L46.8893 67.5739C46.9042 67.442 46.9889 67.3458 47.0652 67.3284C47.9621 67.1199 48.8513 66.8548 49.7081 66.5403C50.5464 66.2323 50.9765 65.3033 50.6685 64.4647C50.3607 63.6264 49.4316 63.1963 48.593 63.5044C47.8612 63.7733 47.101 63.9998 46.3364 64.1774C44.9127 64.5054 43.8434 65.7244 43.6758 67.2101L43.4008 69.6324C43.278 70.7262 42.7359 71.7069 41.8744 72.3936C41.0129 73.0806 39.9355 73.3909 38.8421 73.2678C36.583 73.0117 34.9518 70.9652 35.2063 68.7064L35.48 66.2863C36.0362 61.3352 39.6505 57.2579 44.4739 56.1406C49.3101 55.0202 52.826 50.7621 53.0242 45.7848C53.2402 40.3256 49.3471 35.4807 43.9706 34.516C38.2903 33.4921 32.722 37.0517 31.2928 42.6234C31.1655 43.1245 31.0719 43.6352 31.0145 44.142C30.8916 45.236 30.3495 46.2167 29.488 46.9034C28.6265 47.5904 27.5493 47.9008 26.4547 47.7772C25.36 47.6539 24.3791 47.1117 23.6925 46.2505C23.0059 45.3892 22.6956 44.3121 22.8192 43.2179C22.921 42.3162 23.0846 41.4265 23.3061 40.5702C25.7993 30.8408 35.5171 24.6148 45.429 26.396C51.229 27.4392 56.2457 31.1358 59.0229 36.359C58.6395 36.9152 58.275 37.4857 57.9381 38.0693C55.7151 41.9196 57.0391 46.8607 60.8894 49.0837C60.8959 49.0875 60.9028 49.0907 60.9093 49.0944C60.0749 53.3008 57.862 57.1268 54.5904 59.9642C53.9157 60.5493 53.8433 61.5707 54.4283 62.2453C54.5498 62.3851 54.6897 62.499 54.8413 62.5865C55.4218 62.9217 56.1747 62.8714 56.7096 62.4074C60.4257 59.1846 62.9711 54.8669 64.0014 50.1094C67.0943 50.46 70.2506 48.9954 71.9038 46.1321C72.1157 45.765 72.353 45.4125 72.6091 45.0838C75.4762 41.4067 80.7774 40.5704 84.6762 43.1782C88.3602 45.6396 89.683 50.5018 87.753 54.4884C85.988 58.1349 81.9873 60.1674 78.0239 59.4309C71.1331 58.1501 64.136 61.3897 60.6127 67.4922L59.2456 69.8601C57.0226 73.7104 58.3464 78.6514 62.1967 80.8744C66.0471 83.0974 70.9882 81.7734 73.2112 77.9231L74.5783 75.5552C74.6895 75.3625 74.8947 75.2516 75.0773 75.2856C82.9872 76.7554 90.943 74.2924 96.6418 69.0691C99.6931 67.8336 103.293 68.6788 105.477 71.1718C108.022 74.0726 108.039 78.4622 105.517 81.3816C103.209 84.0512 99.3852 84.859 96.2169 83.3452C90.5162 80.6233 83.6696 81.8107 79.1793 86.3004L77.4574 88.0238C76.0674 89.4132 75.3015 91.261 75.3014 93.2268C75.3014 95.1932 76.0673 97.0413 77.4573 98.4299C77.9214 98.8943 78.4368 99.2892 78.9908 99.6091C80.0944 100.246 81.3511 100.586 82.66 100.586C84.6254 100.586 86.4733 99.8201 87.8642 98.4295L89.5829 96.7097C89.6818 96.6112 89.8071 96.5922 89.8744 96.6243C99.0089 100.989 110.021 98.6774 116.653 91.0031C120.691 86.3305 122.629 80.0944 121.968 73.8941ZM75.6679 72.1059C74.1377 71.8215 72.574 72.5579 71.7771 73.9382L70.4099 76.3061C69.0786 78.612 66.1194 79.4049 63.8135 78.0736C61.5076 76.7422 60.7149 73.7832 62.0462 71.4773L63.4133 69.1094C66.2527 64.1915 71.8864 61.5799 77.4326 62.6107C82.8249 63.6127 88.266 60.8523 90.6639 55.8977C93.2934 50.4663 91.4914 43.842 86.4735 40.4895C86.2481 40.3387 86.0198 40.1967 85.7879 40.0628C80.5663 37.0481 73.7965 38.3013 70.0587 43.0952C69.7108 43.5412 69.3893 44.0188 69.1027 44.5152C67.7714 46.8211 64.8122 47.614 62.5063 46.2827C60.2002 44.9512 59.4075 41.9922 60.7388 39.6863C61.2469 38.8062 61.8201 37.9553 62.4425 37.1571C69.44 28.183 82.3503 26.1196 91.8378 32.4587C100.842 38.4745 104.075 50.3603 99.357 60.106C95.0676 68.9659 85.3265 73.9007 75.6679 72.1059Z" fill="black"/>
<path d="M75.8167 100.069C74.4269 98.6797 72.5793 97.9143 70.6137 97.9143C68.6481 97.9142 66.8003 98.6796 65.4134 100.067L65.377 100.103C62.508 102.972 62.5079 107.64 65.3769 110.509C65.8422 110.975 66.3542 111.364 66.8987 111.678C69.712 113.303 73.3799 112.913 75.7856 110.507L75.8168 110.476C77.2067 109.086 77.9721 107.238 77.9723 105.273C77.9718 103.307 77.2064 101.459 75.8167 100.069ZM73.5274 108.191L73.4961 108.223C71.888 109.831 69.2715 109.83 67.6635 108.223C66.0555 106.614 66.0555 103.998 67.6607 102.393L67.6972 102.357C68.476 101.578 69.5116 101.149 70.6133 101.149C71.7149 101.149 72.7502 101.577 73.5295 102.357C74.3086 103.136 74.7376 104.171 74.7374 105.273C74.7376 106.374 74.3086 107.41 73.5274 108.191Z" fill="black"/>
<path d="M60.6963 83.4729C56.846 81.2499 51.9051 82.574 49.6821 86.4243L49.6553 86.4706C47.4323 90.3209 48.7561 95.2619 52.6064 97.4849C56.4568 99.7079 61.3979 98.3839 63.6209 94.5336L63.6476 94.4873C65.8707 90.6368 64.5466 85.6959 60.6963 83.4729ZM60.8201 92.9163C59.4888 95.2222 56.5296 96.0151 54.2237 94.6838C51.9178 93.3525 51.125 90.3934 52.4564 88.0875L52.4831 88.0412C53.8144 85.7353 56.7736 84.9424 59.0793 86.2736C61.3852 87.6049 62.1781 90.5641 60.8468 92.87L60.8201 92.9163Z" fill="black"/>
</svg>
