<svg width="54" height="60" viewBox="0 0 54 60" fill="none" xmlns="http://www.w3.org/2000/svg">
<path d="M10.3422 7.50775V18.75L12.3339 22.5L10.3422 26.25V52.4923H26.836L29.7024 30L26.836 7.50775H10.3422Z" fill="#F2DFAC"/>
<path d="M43.3297 7.50775H26.8359V52.4923H43.3297V41.25L41.338 37.4999L43.3297 33.7499V7.50775Z" fill="#E8C88E"/>
<path d="M20.9503 17.6512V21.1669H26.8359L28.3526 19.4091L26.8359 17.6512H20.9503Z" fill="#505073"/>
<path d="M20.9503 42.3486H26.8359L27.946 40.5908L26.8359 38.833H20.9503V42.3486Z" fill="#505073"/>
<path d="M17.0211 24.7119V28.2275H26.8359L27.946 26.4697L26.8359 24.7119H17.0211Z" fill="#505073"/>
<path d="M17.0211 35.2882H26.8359L27.946 33.5303L26.8359 31.7726H17.0211V35.2882Z" fill="#505073"/>
<path d="M4.07367 1.88275V9.38275H26.8359L28.8266 5.63275L26.8359 1.88275H4.07367Z" fill="#FFF4C4"/>
<path d="M26.8359 17.6512H32.7216V21.1669H26.8359V17.6512Z" fill="#424163"/>
<path d="M26.8359 1.88275H49.5982V9.38275H26.8359V1.88275Z" fill="#F2DFAC"/>
<path d="M26.8359 38.833H32.7216V42.3486H26.8359V38.833Z" fill="#424163"/>
<path d="M0 3.53027H5.40738V7.0459H0V3.53027Z" fill="#8F5939"/>
<path d="M26.8359 24.7119H36.6507V28.2275H26.8359V24.7119Z" fill="#424163"/>
<path d="M48.2645 3.53027H53.6719V7.0459H48.2645V3.53027Z" fill="#71462D"/>
<path d="M26.8359 31.7726H36.6507V35.2882H26.8359V31.7726Z" fill="#424163"/>
<path d="M46.5067 0H50.0223V10.5762H46.5067V0Z" fill="#8F5939"/>
<path d="M3.64957 0H7.16519V10.5762H3.64957V0Z" fill="#AD7254"/>
<path d="M4.07367 51.3066V58.8066H26.8359L28.8266 55.0566L26.8359 51.3066H4.07367Z" fill="#FFF4C4"/>
<path d="M26.8359 51.3066H49.5982V58.8066H26.8359V51.3066Z" fill="#F2DFAC"/>
<path d="M0 52.9541H5.40738V56.4697H0V52.9541Z" fill="#8F5939"/>
<path d="M48.2645 52.9541H53.6719V56.4697H48.2645V52.9541Z" fill="#71462D"/>
<path d="M46.5067 49.4238H50.0223V60H46.5067V49.4238Z" fill="#8F5939"/>
<path d="M3.64957 49.4238H7.16519V60H3.64957V49.4238Z" fill="#AD7254"/>
</svg>
